<svg xmlns="http://www.w3.org/2000/svg" viewBox="0 0 160 160" role="img" aria-label="Mascara azul original estilo atraco">
  <defs>
    <linearGradient id="blueFace" x1="0" x2="1" y1="0" y2="1">
      <stop offset="0" stop-color="#f8fbff"/>
      <stop offset="1" stop-color="#b7d7ff"/>
    </linearGradient>
  </defs>
  <rect width="160" height="160" rx="34" fill="#070b12"/>
  <circle cx="80" cy="80" r="66" fill="#10243d" stroke="#56a8ff" stroke-width="4"/>
  <path d="M80 18 128 39 120 108 96 142H64L40 108 32 39 80 18Z" fill="url(#blueFace)"/>
  <path d="M40 52c15-14 28-20 40-20s25 6 40 20" fill="none" stroke="#1f6feb" stroke-width="8" stroke-linecap="round"/>
  <path d="M49 72h25l-8 15H48l-11-9 12-6Zm62 0H86l8 15h18l11-9-12-6Z" fill="#07101c"/>
  <path d="M67 112h26l-13 15-13-15Z" fill="#ff4d5e"/>
  <path d="M80 38v88" stroke="#1f6feb" stroke-width="4" stroke-linecap="round" opacity=".35"/>
</svg>
